<svg xmlns:cc="http://creativecommons.org/ns#" xmlns:dc="http://purl.org/dc/elements/1.1/" xmlns:gpa="https://www.gtk.org/grappa" xmlns:rdf="http://www.w3.org/1999/02/22-rdf-syntax-ns#" width="16" height="16" gpa:version="1" gpa:state="0" gpa:state-names="outline empty">
  <defs id="defs1" fill="url(&quot;#gpa:foreground&quot;) rgb(0,0,0)" stroke="none" class="foreground foreground-fill" gpa:states="none" gpa:animation-repeat="0" gpa:animation-segment="0" gpa:fill="foreground">
    </defs>
  <rect id="border" fill="none" stroke="url(&quot;#gpa:foreground&quot;) rgb(0,0,0)" stroke-opacity="1" stroke-width="2" stroke-linecap="round" stroke-linejoin="round" stroke-miterlimit="4" stroke-dashoffset="22.5589" x="1" y="1" width="14" height="14" rx="2.93631" ry="2.93631" class="transparent-fill foreground-stroke" gpa:stroke-width="0.5 2 3" gpa:stroke="foreground" gpa:fill="none" gpa:states="outline">
    </rect>
  <path id="circle1" fill="none" stroke="url(&quot;#gpa:foreground&quot;) rgb(0,0,0)" stroke-opacity="1" stroke-width="1" stroke-linecap="butt" stroke-linejoin="miter" stroke-miterlimit="4" d="M 8 8 C 8 9.10456944, 8.89543056 10, 10 10 C 11.1045694 10, 12 9.10456944, 12 8 C 12 6.89543056, 11.1045694 6, 10 6 C 9.4250927 6, 9 6.28726196, 9 6.28726196 M 8 8 C 8 6.89543056, 7.10456944 6, 6 6 C 4.89543056 6, 4 6.89543056, 4 8 C 4 9.10456944, 4.89543056 10, 6 10 C 6.6464467 10, 7.11048555 9.66323662, 7.11048555 9.66323662" class="transparent-fill foreground-stroke" gpa:stroke-width="0.25 1 1.5" gpa:stroke="foreground" gpa:fill="none" gpa:states="outline">
    </path>
  <metadata>
    <rdf:RDF>
      <cc:Work>
        <cc:license rdf:resource="https://creativecommons.org/publicdomain/zero/1.0/"></cc:license>
        <dc:subject>
          <rdf:Bag>
            <rdf:li>adw widget-dialog</rdf:li>
          </rdf:Bag>
        </dc:subject>
        <dc:creator>
          <cc:Agent>
            <dc:title>Jakub Steiner</dc:title>
          </cc:Agent>
        </dc:creator>
      </cc:Work>
    </rdf:RDF>
  </metadata>
</svg>