<svg xmlns:cc="http://creativecommons.org/ns#" xmlns:dc="http://purl.org/dc/elements/1.1/" xmlns:gpa="https://www.gtk.org/grappa" xmlns:rdf="http://www.w3.org/1999/02/22-rdf-syntax-ns#" width="16" height="16" gpa:version="1" gpa:state="0" gpa:state-names="outline empty">
  <defs id="defs1" class="" gpa:states="none" gpa:animation-repeat="0" gpa:animation-segment="0">
    </defs>
  <path id="bell" fill="none" stroke="url(&quot;#gpa:foreground&quot;) rgb(0,0,0)" stroke-opacity="1" stroke-width="2" stroke-linecap="round" stroke-linejoin="round" stroke-dasharray="none" d="M 10 13 C 10 13.7145309, 9.61880207 14.3747854, 9 14.7320509 C 8.38119793 15.0893164, 7.61880207 15.0893164, 7 14.7320509 C 6.38119793 14.3747854, 6 13.7145309, 6 13 M 8 3 L 8 1 M 2 12 L 14 12 M 2 12 C 3.02507615 12, 4 11.1057377, 4 10 L 4 7 C 4 4.79086113, 5.79086113 3, 8 3 C 10.2091389 3, 12 4.79086113, 12 7 L 12 10 C 12 11.0847864, 12.9393396 12, 14 12" class="transparent-fill foreground-stroke" gpa:stroke-width="0.5 2 3" gpa:stroke="foreground" gpa:fill="none" gpa:states="outline">
    </path>
  <metadata>
    <rdf:RDF>
      <cc:Work>
        <cc:license rdf:resource="https://creativecommons.org/publicdomain/zero/1.0/"></cc:license>
        <dc:subject>
          <rdf:Bag>
            <rdf:li>bell sound alarm noise ring preferences-system-notifications adw widget-toast</rdf:li>
          </rdf:Bag>
        </dc:subject>
        <dc:creator>
          <cc:Agent>
            <dc:title>Jakub Steiner</dc:title>
          </cc:Agent>
        </dc:creator>
      </cc:Work>
    </rdf:RDF>
  </metadata>
</svg>