<svg xmlns:cc="http://creativecommons.org/ns#" xmlns:dc="http://purl.org/dc/elements/1.1/" xmlns:gpa="https://www.gtk.org/grappa" xmlns:rdf="http://www.w3.org/1999/02/22-rdf-syntax-ns#" width="16" height="16" gpa:version="1" gpa:state="0" gpa:state-names="outline empty">
  <path id="path3" fill="none" stroke="url(&quot;#gpa:foreground&quot;) rgb(0,0,0)" stroke-width="2" stroke-linecap="round" stroke-linejoin="round" d="M 15 4 L 15 12 C 15 13.1045694, 14.1045704 14, 13 14 L 3 14 C 1.89543056 14, 1 13.1045694, 1 12 L 1 4 C 1 2.89543056, 1.89543056 2, 3 2 L 13 2 C 14.1045704 2, 15 2.89543056, 15 4 Z" class="transparent-fill foreground-stroke" gpa:stroke-width="0.5 2 3" gpa:stroke="foreground" gpa:fill="none" gpa:states="outline">
    </path>
  <path id="path4" fill="url(&quot;#gpa:foreground&quot;) rgb(0,0,0)" fill-opacity="0.2" fill-rule="nonzero" stroke="none" d="M 6.5 2 L 6.5 14 L 3 14 C 1.89543056 14, 1 13.1045694, 1 12 L 1 4 C 1 2.89543056, 1.89543056 2, 3 2 Z" class="foreground foreground-fill" gpa:fill="foreground" gpa:states="outline">
    </path>
  <path id="path5" fill="none" stroke="url(&quot;#gpa:foreground&quot;) rgb(0,0,0)" stroke-width="1" stroke-linecap="butt" stroke-linejoin="round" d="M 6.5 2 L 6.5 14" class="transparent-fill foreground-stroke" gpa:stroke-width="0.25 1 2" gpa:stroke="foreground" gpa:fill="none" gpa:states="outline">
    </path>
  <metadata>
    <rdf:RDF>
      <cc:Work>
        <cc:license rdf:resource="https://creativecommons.org/publicdomain/zero/1.0/"></cc:license>
        <dc:subject>
          <rdf:Bag>
            <rdf:li>sidebar-show dock ui view-sidebar-end-symbolic-rtl view-sidebar-end-rtl adw view-sidebar-start widget-split-views</rdf:li>
          </rdf:Bag>
        </dc:subject>
        <dc:creator>
          <cc:Agent>
            <dc:title>Jakub Steiner</dc:title>
          </cc:Agent>
        </dc:creator>
      </cc:Work>
    </rdf:RDF>
  </metadata>
</svg>