<svg xmlns:cc="http://creativecommons.org/ns#" xmlns:dc="http://purl.org/dc/elements/1.1/" xmlns:gpa="https://www.gtk.org/grappa" xmlns:rdf="http://www.w3.org/1999/02/22-rdf-syntax-ns#" width="16" height="16" gpa:version="1" gpa:state="0" gpa:state-names="outline filled empty">
  <style type="text/css">
    .not-initial-state {
      visibility: hidden;
    }
  </style>
  <path d="M 4.55572414 9.17186546 L 1.39145935 6.92023993 C 1.08501673 6.70218229, 0.954944372 6.31071615, 1.06990623 5.95249319 C 1.1848681 5.59427023, 1.51840413 5.35174084, 1.89444351 5.35293388 L 5.90341663 5.36564922 L 7.14956188 1.62577605 C 7.27188063 1.25867724, 7.61581326 1.01153004, 8.00257206 1.0128094 C 8.38933086 1.01408875, 8.73162174 1.26350605, 8.85151196 1.63140607 L 10.0531168 5.3187151 L 14.1086493 5.33404541 C 14.4877501 5.33547878, 14.8225393 5.58169031, 14.9370527 5.94327211 C 15.0515671 6.30485392, 14.9195938 6.69904327, 14.6104984 6.9186554 L 11.4391928 9.17186832 L 12.7415619 12.7836342 C 12.8744164 13.152071, 12.7570829 13.5642338, 12.4501381 13.8073406 C 12.1431923 14.0504475, 11.7153101 14.0701056, 11.3873882 13.8561668 L 8.04010677 11.6723623 L 4.69121647 13.8565025 C 4.35836506 14.0735874, 3.92438817 14.0549088, 3.61139917 13.8100271 C 3.29840994 13.5651455, 3.17567301 13.1482525, 3.30600595 12.7727175 Z" id="path4" gpa:states="filled" stroke="none" fill-rule="nonzero" fill="rgb(0,0,0)" class="foreground-fill" gpa:fill="foreground">
    </path>
  <path d="M 4.55572414 9.17186546 L 1.39145935 6.92023993 C 1.08501673 6.70218229, 0.954944372 6.31071615, 1.06990623 5.95249319 C 1.1848681 5.59427023, 1.51840413 5.35174084, 1.89444351 5.35293388 L 5.90341663 5.36564922 L 7.14956188 1.62577605 C 7.27188063 1.25867724, 7.61581326 1.01153004, 8.00257206 1.0128094 C 8.38933086 1.01408875, 8.73162174 1.26350605, 8.85151196 1.63140607 L 10.0531168 5.3187151 L 14.1086493 5.33404541 C 14.4877501 5.33547878, 14.8225393 5.58169031, 14.9370527 5.94327211 C 15.0515671 6.30485392, 14.9195938 6.69904327, 14.6104984 6.9186554 L 11.4391928 9.17186832 L 12.7415619 12.7836342 C 12.8744164 13.152071, 12.7570829 13.5642338, 12.4501381 13.8073406 C 12.1431923 14.0504475, 11.7153101 14.0701056, 11.3873882 13.8561668 L 8.04010677 11.6723623 L 4.69121647 13.8565025 C 4.35836506 14.0735874, 3.92438817 14.0549088, 3.61139917 13.8100271 C 3.29840994 13.5651455, 3.17567301 13.1482525, 3.30600595 12.7727175 Z" gpa:states="outline" stroke-width="2" stroke-linecap="round" stroke-linejoin="round" stroke="rgb(0,0,0)" fill="none" class="foreground-stroke transparent-fill not-initial-state" gpa:stroke="foreground">
    </path>
  <metadata>
    <rdf:RDF>
      <cc:Work>
        <cc:license rdf:resource="https://creativecommons.org/publicdomain/zero/1.0/"></cc:license>
        <dc:subject>
          <rdf:Bag>
            <rdf:li>starred</rdf:li>
          </rdf:Bag>
        </dc:subject>
        <dc:creator>
          <cc:Agent>
            <dc:title>Jakub Steiner</dc:title>
          </cc:Agent>
        </dc:creator>
      </cc:Work>
    </rdf:RDF>
  </metadata>
</svg>