<svg width="16" height="16" xmlns="http://www.w3.org/2000/svg"><path style="fill:#2e3436;fill-opacity:1" d="M3.006 0c-1.645 0-3 1.355-3 3v10c0 1.645 1.355 3 3 3h10c1.645 0 3-1.355 3-3V3c0-1.645-1.355-3-3-3h-10zm0 2h10c.571 0 1 .429 1 1v10c0 .571-.429 1-1 1h-10c-.571 0-1-.429-1-1V3c0-.571.429-1 1-1zm2.469 3.402c-.349 0-.673.074-.973.22a2.16 2.16 0 0 0-.77.58 2.755 2.755 0 0 0-.507.87A3.33 3.33 0 0 0 3.05 8.16c0 .397.057.765.174 1.104.125.329.295.62.507.87.213.243.47.436.77.58a2.311 2.311 0 0 0 2.191-.158c.407-.25.829-.639 1.264-1.161.426.56.852.963 1.277 1.205.436.242.866.363 1.291.363.349 0 .673-.068.973-.203.3-.145.557-.34.77-.582.212-.252.376-.546.492-.885.126-.339.19-.7.19-1.088 0-.387-.064-.751-.19-1.09a2.545 2.545 0 0 0-.492-.869 2.165 2.165 0 0 0-.77-.582 2.203 2.203 0 0 0-.973-.217c-.416 0-.828.126-1.234.377-.397.242-.813.624-1.248 1.147-.426-.561-.856-.963-1.291-1.205-.426-.242-.852-.364-1.277-.364zm.115 1.743c.193 0 .392.067.596.203.203.125.46.392.77.798a7.62 7.62 0 0 1-.436.522 2.505 2.505 0 0 1-.348.32 1.232 1.232 0 0 1-.305.145 1.013 1.013 0 0 1-.29.045.729.729 0 0 1-.58-.278c-.146-.183-.22-.43-.22-.74s.074-.556.22-.74a.74.74 0 0 1 .593-.275zm4.834.044c.232 0 .421.092.566.276.155.184.233.43.233.74s-.078.556-.233.74a.701.701 0 0 1-.58.276c-.193 0-.392-.064-.596-.19-.203-.135-.46-.406-.77-.812.165-.213.31-.386.436-.522a1.86 1.86 0 0 1 .348-.304 1.11 1.11 0 0 1 .291-.16c.097-.03.198-.044.305-.044z"/></svg>