<svg xmlns:cc="http://creativecommons.org/ns#" xmlns:dc="http://purl.org/dc/elements/1.1/" xmlns:gpa="https://www.gtk.org/grappa" xmlns:rdf="http://www.w3.org/1999/02/22-rdf-syntax-ns#" width="16" height="16" gpa:version="1" gpa:state="0" gpa:state-names="outline empty">
  <defs id="defs1" fill="url(&quot;#gpa:foreground&quot;) rgb(0,0,0)" stroke="none" class="foreground foreground-fill" gpa:states="none" gpa:animation-repeat="0" gpa:animation-segment="0" gpa:fill="foreground">
    </defs>
  <path id="handle" fill="none" stroke="url(&quot;#gpa:foreground&quot;) rgb(0,0,0)" stroke-opacity="1" stroke-width="2" stroke-linecap="round" stroke-linejoin="round" stroke-miterlimit="10" d="M 6 3 L 6 5 L 3 5 C 1.89543045 5, 1 5.89543056, 1 7 L 1 8 L 15 8 L 15 7 C 15 5.89543056, 14.1045694 5, 13 5 L 10 5 L 10 3 C 10 1.89543045, 9.10456944 1, 8 1 C 6.89543056 1, 6 1.89543045, 6 3 Z" class="transparent-fill foreground-stroke" gpa:stroke-width="0.5 2 3" gpa:stroke="foreground" gpa:fill="none" gpa:states="outline">
    </path>
  <path id="brush" fill="none" stroke="url(&quot;#gpa:foreground&quot;) rgb(0,0,0)" stroke-opacity="1" stroke-width="2" stroke-linecap="round" stroke-linejoin="round" stroke-miterlimit="10" d="M 3 8 L 1.52830195 13.1509428 C 1.40325642 13.5886011, 1.49089444 14.059576, 1.76499677 14.4229612 C 2.03909898 14.7863474, 2.4678762 15, 2.92304778 15 L 6 15 L 7 13 L 8 15 L 10 15 L 11 12 L 12 15 L 13.076952 15 C 13.5321236 15, 13.9609013 14.7863474, 14.2350035 14.4229612 C 14.5091057 14.059576, 14.5967436 13.5886011, 14.4716978 13.1509428 L 13 8 Z" class="transparent-fill foreground-stroke" gpa:stroke-width="0.5 2 3" gpa:stroke="foreground" gpa:fill="none" gpa:states="outline">
    </path>
  <metadata>
    <rdf:RDF>
      <cc:Work>
        <cc:license rdf:resource="https://creativecommons.org/publicdomain/zero/1.0/"></cc:license>
        <dc:subject>
          <rdf:Bag>
            <rdf:li>clean cleaning brush sweep style-classes adw</rdf:li>
          </rdf:Bag>
        </dc:subject>
        <dc:creator>
          <cc:Agent>
            <dc:title>Jakub Steiner</dc:title>
          </cc:Agent>
        </dc:creator>
      </cc:Work>
    </rdf:RDF>
  </metadata>
</svg>