<svg xmlns:cc="http://creativecommons.org/ns#" xmlns:dc="http://purl.org/dc/elements/1.1/" xmlns:gpa="https://www.gtk.org/grappa" xmlns:rdf="http://www.w3.org/1999/02/22-rdf-syntax-ns#" width="16" height="16" gpa:version="1" gpa:state="0" gpa:state-names="outline empty">
  <defs id="defs1" fill="url(&quot;#gpa:foreground&quot;) rgb(0,0,0)" stroke="none" class="foreground foreground-fill" gpa:states="none" gpa:animation-repeat="0" gpa:animation-segment="0" gpa:fill="foreground">
    </defs>
  <path id="multi" fill="none" stroke="url(&quot;#gpa:foreground&quot;) rgb(0,0,0)" stroke-opacity="1" stroke-width="2" stroke-linecap="round" stroke-linejoin="round" stroke-miterlimit="4" stroke-dashoffset="22.5589" d="M 1.63923359 11.4540854 C 1.24516106 11.0900106, 1 10.5739889, 1 10 L 1 3 C 1 1.8920002, 1.9135313 1, 3.04827595 1 L 7.95172405 1 C 9.0864687 1, 10 1.8920002, 10 3 L 10 10 C 10 11.1079998, 9.0864687 12, 7.95172405 12 L 7 12 M 6 6 C 4.8920002 6, 4 6.9135313, 4 8.04827595 L 4 12.9517241 C 4 14.0864687, 4.8920002 15, 6 15 L 13 15 C 14.1079998 15, 15 14.0864687, 15 12.9517241 L 15 8.04827595 C 15 6.9135313, 14.1079998 6, 13 6" class="transparent-fill foreground-stroke" gpa:stroke-width="0.5 2 3" gpa:stroke="foreground" gpa:fill="none" gpa:states="outline">
    </path>
  <metadata>
    <rdf:RDF>
      <cc:Work>
        <cc:license rdf:resource="https://creativecommons.org/publicdomain/zero/1.0/"></cc:license>
        <dc:subject>
          <rdf:Bag>
            <rdf:li>adw widget-multi-layout</rdf:li>
          </rdf:Bag>
        </dc:subject>
        <dc:creator>
          <cc:Agent>
            <dc:title>Jakub Steiner</dc:title>
          </cc:Agent>
        </dc:creator>
      </cc:Work>
    </rdf:RDF>
  </metadata>
</svg>