<svg xmlns="http://www.w3.org/2000/svg" width="16.015" height="16">
    <g font-weight="400" font-family="sans-serif" fill="#2e3436">
        <path d="M7.446 11.007h1.143c1.9 0 3.428 1.53 3.428 3.429v.803c0 .762-.76.761-.76.761H4.778s-.762 0-.762-.761v-.803c0-1.9 1.53-3.429 3.429-3.429z" style="line-height:normal;font-variant-ligatures:normal;font-variant-position:normal;font-variant-caps:normal;font-variant-numeric:normal;font-variant-alternates:normal;font-feature-settings:normal;text-indent:0;text-align:start;text-decoration-line:none;text-decoration-style:solid;text-decoration-color:#000;text-transform:none;text-orientation:mixed;white-space:normal;shape-padding:0;isolation:auto;mix-blend-mode:normal;solid-color:#000;solid-opacity:1;marker:none" color="#bebebe" overflow="visible"/>
        <path d="M8.017 3.004a4.99 4.99 0 00-3.324 1.262 5.007 5.007 0 00-.771 6.601.75.75 0 101.228-.86 3.492 3.492 0 01.541-4.622 3.49 3.49 0 014.653 0 3.492 3.492 0 01.54 4.623.75.75 0 101.23.86 5.007 5.007 0 00-.772-6.602 4.99 4.99 0 00-3.325-1.262z" style="line-height:normal;font-variant-ligatures:normal;font-variant-position:normal;font-variant-caps:normal;font-variant-numeric:normal;font-variant-alternates:normal;font-feature-settings:normal;text-indent:0;text-align:start;text-decoration-line:none;text-decoration-style:solid;text-decoration-color:#000;text-transform:none;text-orientation:mixed;white-space:normal;shape-padding:0;isolation:auto;mix-blend-mode:normal;solid-color:#000;solid-opacity:1" color="#000" overflow="visible" opacity=".35"/>
        <path d="M8.017 6a2 2 0 110 4 2 2 0 010-4z" style="line-height:normal;font-variant-ligatures:normal;font-variant-position:normal;font-variant-caps:normal;font-variant-numeric:normal;font-variant-alternates:normal;font-feature-settings:normal;text-indent:0;text-align:start;text-decoration-line:none;text-decoration-style:solid;text-decoration-color:#000;text-transform:none;text-orientation:mixed;white-space:normal;shape-padding:0;isolation:auto;mix-blend-mode:normal;solid-color:#000;solid-opacity:1;marker:none" color="#bebebe" overflow="visible"/>
        <path d="M8.017.004A7.98 7.98 0 002.7 2.024a8.008 8.008 0 00-1.234 10.564.75.75 0 101.228-.86 6.491 6.491 0 011.004-8.583 6.489 6.489 0 018.64 0 6.491 6.491 0 011.005 8.584.75.75 0 101.228.859 8.008 8.008 0 00-1.234-10.565A7.98 7.98 0 008.017.003z" style="line-height:normal;font-variant-ligatures:normal;font-variant-position:normal;font-variant-caps:normal;font-variant-numeric:normal;font-variant-alternates:normal;font-feature-settings:normal;text-indent:0;text-align:start;text-decoration-line:none;text-decoration-style:solid;text-decoration-color:#000;text-transform:none;text-orientation:mixed;white-space:normal;shape-padding:0;isolation:auto;mix-blend-mode:normal;solid-color:#000;solid-opacity:1" color="#000" overflow="visible" opacity=".35"/>
    </g>
</svg>
