<?xml version="1.0" encoding="UTF-8"?>
<svg xmlns="http://www.w3.org/2000/svg" xmlns:xlink="http://www.w3.org/1999/xlink" width="16px" height="16px" viewBox="0 0 16 16" version="1.1">
<g id="surface602800">
<path style=" stroke:none;fill-rule:nonzero;fill:rgb(18.039216%,20.392157%,21.176471%);fill-opacity:1;" d="M 6.507812 1 C 3.480469 1 1 3.472656 1 6.5 C 1 9.527344 3.480469 12 6.507812 12 C 9.535156 12 12.011719 9.527344 12.011719 6.5 C 12.011719 3.472656 9.535156 1 6.507812 1 Z M 6.507812 3 C 8.453125 3 10.011719 4.554688 10.011719 6.5 C 10.011719 8.445312 8.453125 10 6.507812 10 C 4.558594 10 3.003906 8.445312 3.003906 6.5 C 3.003906 4.554688 4.558594 3 6.507812 3 Z M 6.507812 3 "/>
<path style=" stroke:none;fill-rule:nonzero;fill:rgb(18.039216%,20.392157%,21.176471%);fill-opacity:1;" d="M 10 8.988281 C 9.59375 8.992188 9.226562 9.238281 9.074219 9.613281 C 8.921875 9.992188 9.011719 10.421875 9.304688 10.707031 L 13.308594 14.707031 C 13.558594 14.96875 13.933594 15.074219 14.28125 14.980469 C 14.632812 14.890625 14.90625 14.617188 14.996094 14.265625 C 15.089844 13.917969 14.984375 13.542969 14.722656 13.292969 L 10.71875 9.292969 C 10.53125 9.097656 10.269531 8.988281 10 8.988281 Z M 10 8.988281 "/>
</g>
</svg>
