<?xml version="1.0" encoding="UTF-8"?>
<svg xmlns="http://www.w3.org/2000/svg" xmlns:xlink="http://www.w3.org/1999/xlink" width="16px" height="16px" viewBox="0 0 16 16" version="1.1">
<g id="surface543430">
<path style=" stroke:none;fill-rule:nonzero;fill:rgb(18.039216%,20.392157%,21.176471%);fill-opacity:1;" d="M 11 1 C 9.910156 1 9 1.910156 9 3 L 9 5 C 9 6.089844 9.910156 7 11 7 L 13 7 C 14.089844 7 15 6.089844 15 5 L 15 3 C 15 1.910156 14.089844 1 13 1 Z M 11 1 "/>
<path style=" stroke:none;fill-rule:nonzero;fill:rgb(18.039216%,20.392157%,21.176471%);fill-opacity:1;" d="M 3 1 C 1.910156 1 1 1.910156 1 3 L 1 5 C 1 6.089844 1.910156 7 3 7 L 5 7 C 6.089844 7 7 6.089844 7 5 L 7 3 C 7 1.910156 6.089844 1 5 1 Z M 3 1 "/>
<path style=" stroke:none;fill-rule:nonzero;fill:rgb(18.039216%,20.392157%,21.176471%);fill-opacity:1;" d="M 3 9 C 1.910156 9 1 9.910156 1 11 L 1 13 C 1 14.089844 1.910156 15 3 15 L 5 15 C 6.089844 15 7 14.089844 7 13 L 7 11 C 7 9.910156 6.089844 9 5 9 Z M 3 9 "/>
<path style=" stroke:none;fill-rule:nonzero;fill:rgb(18.039216%,20.392157%,21.176471%);fill-opacity:1;" d="M 11 9 C 9.910156 9 9 9.910156 9 11 L 9 13 C 9 14.089844 9.910156 15 11 15 L 13 15 C 14.089844 15 15 14.089844 15 13 L 15 11 C 15 9.910156 14.089844 9 13 9 Z M 11 9 "/>
</g>
</svg>
