<?xml version="1.0" encoding="UTF-8"?>
<svg xmlns="http://www.w3.org/2000/svg" xmlns:xlink="http://www.w3.org/1999/xlink" width="16px" height="16px" viewBox="0 0 16 16" version="1.1">
<g id="surface741686">
<path style=" stroke:none;fill-rule:nonzero;fill:rgb(18.039216%,20.392157%,21.176471%);fill-opacity:1;" d="M 1.980469 2 C 1.425781 2 0.980469 2.445312 0.980469 3 L 0.980469 14 C 0.980469 14.554688 1.425781 15 1.980469 15 L 14.984375 15 C 15.539062 15 15.984375 14.554688 15.984375 14 L 15.984375 3 C 15.984375 2.445312 15.539062 2 14.984375 2 Z M 3.34375 4 L 5 4 L 5 6 L 3 6 L 3 4.394531 C 3 4.175781 3.152344 4 3.34375 4 Z M 6 4 L 8 4 L 8 6 L 6 6 Z M 9 4 L 11 4 L 11 6 L 9 6 Z M 12 4 L 13.65625 4 C 13.847656 4 14 4.175781 14 4.394531 L 14 6 L 12 6 Z M 4 7 L 6 7 L 6 9 L 4 9 Z M 7 7 L 9 7 L 9 9 L 7 9 Z M 10 7 L 12 7 L 12 9 L 10 9 Z M 3.34375 11 L 13.65625 11 C 13.847656 11 14 11.175781 14 11.394531 L 14 12.605469 C 14 12.824219 13.847656 13 13.65625 13 L 3.34375 13 C 3.152344 13 3 12.824219 3 12.605469 L 3 11.394531 C 3 11.175781 3.152344 11 3.34375 11 Z M 3.34375 11 "/>
</g>
</svg>
