<?xml version="1.0" encoding="UTF-8"?>
<svg xmlns="http://www.w3.org/2000/svg" xmlns:xlink="http://www.w3.org/1999/xlink" width="16px" height="16px" viewBox="0 0 16 16" version="1.1">
<g id="surface390571">
<path style=" stroke:none;fill-rule:nonzero;fill:rgb(18.039216%,20.392157%,21.176471%);fill-opacity:1;" d="M 11.964844 1.011719 C 13.628906 1.011719 15 2.382812 15 4.046875 L 15 11.964844 C 15 13.628906 13.628906 14.996094 11.964844 14.996094 L 4.03125 14.996094 L 4.03125 12.996094 L 11.964844 12.996094 C 12.554688 12.996094 13 12.554688 13 11.964844 L 13 4.046875 C 13 3.457031 12.554688 3.011719 11.964844 3.011719 L 4.03125 3.011719 L 4.03125 1.011719 Z M 7 4.007812 L 7 5.007812 C 7 5.265625 6.871094 5.535156 6.6875 5.726562 L 5.40625 7.007812 L 10 7.007812 L 10 9.007812 L 5.40625 9.007812 L 6.6875 10.289062 C 6.871094 10.480469 7 10.699219 7 11.007812 L 7 12.007812 L 6 12.007812 C 5.691406 12.007812 5.449219 11.917969 5.25 11.726562 L 1.59375 8.007812 L 5.25 4.289062 C 5.449219 4.097656 5.691406 4.007812 6 4.007812 Z M 7 4.007812 "/>
</g>
</svg>
