<?xml version="1.0" encoding="UTF-8"?>
<svg xmlns="http://www.w3.org/2000/svg" xmlns:xlink="http://www.w3.org/1999/xlink" width="16px" height="16px" viewBox="0 0 16 16" version="1.1">
<g id="surface390441">
<path style=" stroke:none;fill-rule:nonzero;fill:rgb(18.039216%,20.392157%,21.176471%);fill-opacity:1;" d="M 3 1.972656 C 1.910156 1.972656 1 2.882812 1 3.972656 L 1 11.972656 C 1 13.0625 1.910156 13.972656 3 13.972656 L 13 13.972656 C 14.089844 13.972656 15 13.0625 15 11.972656 L 15 3.972656 C 15 2.882812 14.089844 1.972656 13 1.972656 Z M 3 3.972656 L 6 3.972656 L 6 11.972656 L 3 11.972656 Z M 7 3.972656 L 13 3.972656 L 13 11.972656 L 7 11.972656 Z M 7 3.972656 "/>
<path style=" stroke:none;fill-rule:nonzero;fill:rgb(18.039216%,20.392157%,21.176471%);fill-opacity:0.35;" d="M 6 11.972656 L 6 3.972656 L 3 3.972656 L 3 11.972656 Z M 6 11.972656 "/>
</g>
</svg>
