<?xml version="1.0" encoding="UTF-8"?>
<svg xmlns="http://www.w3.org/2000/svg" xmlns:xlink="http://www.w3.org/1999/xlink" width="16px" height="16px" viewBox="0 0 16 16" version="1.1">
<g id="surface390556">
<path style=" stroke:none;fill-rule:nonzero;fill:rgb(18.039216%,20.392157%,21.176471%);fill-opacity:1;" d="M 3 1.996094 C 1.910156 1.996094 1 2.90625 1 3.996094 L 1 11.972656 C 1 13.0625 1.910156 13.972656 3 13.972656 L 9 13.972656 L 9 1.996094 Z M 10 1.996094 L 10 3.996094 L 13 3.996094 L 13 11.972656 L 10 11.972656 L 10 13.972656 L 13 13.972656 C 13.96875 13.972656 15 13.046875 15 11.972656 L 15 3.996094 C 15 2.90625 14.089844 1.996094 13 1.996094 Z M 3 3.996094 L 8 3.996094 L 8 11.972656 L 3 11.972656 Z M 3 3.996094 "/>
<path style="fill:none;stroke-width:1;stroke-linecap:round;stroke-linejoin:miter;stroke:rgb(18.039216%,20.392157%,21.176471%);stroke-opacity:1;stroke-miterlimit:4;" d="M 25.992126 305.312439 L 27.992126 307.312439 L 29.992126 305.312439 " transform="matrix(0.000000000000000061,1,-1,0.000000000000000061,311.999939,-19.992126)"/>
</g>
</svg>
