<?xml version="1.0" encoding="UTF-8"?>
<svg xmlns="http://www.w3.org/2000/svg" xmlns:xlink="http://www.w3.org/1999/xlink" width="16px" height="16px" viewBox="0 0 16 16" version="1.1">
<g id="surface543399">
<path style=" stroke:none;fill-rule:nonzero;fill:rgb(18.039216%,20.392157%,21.176471%);fill-opacity:1;" d="M 4.550781 1 C 2.613281 1 1.050781 2.5625 1.050781 4.5 C 1.050781 6.4375 2.613281 8 4.550781 8 L 11.550781 8 C 13.492188 8 15.050781 6.4375 15.050781 4.5 C 15.050781 2.5625 13.492188 1 11.550781 1 Z M 11.550781 2 C 12.9375 2 14.050781 3.113281 14.050781 4.5 C 14.050781 5.882812 12.9375 7 11.550781 7 C 10.167969 7 9.050781 5.882812 9.050781 4.5 C 9.050781 3.113281 10.167969 2 11.550781 2 Z M 11.550781 2 "/>
<path style=" stroke:none;fill-rule:nonzero;fill:rgb(18.039216%,20.392157%,21.176471%);fill-opacity:0.347284;" d="M 4.550781 9 C 2.613281 9 1.050781 10.5625 1.050781 12.5 C 1.050781 14.4375 2.613281 16 4.550781 16 L 11.550781 16 C 13.492188 16 15.050781 14.4375 15.050781 12.5 C 15.050781 10.5625 13.492188 9 11.550781 9 Z M 4.550781 10 C 5.9375 10 7.050781 11.113281 7.050781 12.5 C 7.050781 13.882812 5.9375 15 4.550781 15 C 3.167969 15 2.050781 13.882812 2.050781 12.5 C 2.050781 11.113281 3.167969 10 4.550781 10 Z M 4.550781 10 "/>
</g>
</svg>
