<?xml version="1.0" encoding="UTF-8"?>
<svg xmlns="http://www.w3.org/2000/svg" xmlns:xlink="http://www.w3.org/1999/xlink" width="16px" height="16px" viewBox="0 0 16 16" version="1.1">
<g id="surface604507">
<path style=" stroke:none;fill-rule:nonzero;fill:rgb(18.039216%,20.392157%,21.176471%);fill-opacity:1;" d="M 3 1 C 1.785156 1 1 1.828125 1 3 L 1 13 C 1 14 2 15 3 15 L 13 15 C 14 15 15 14 15 13 L 15 3 C 15 1.761719 14.171875 1 13 1 Z M 3 3 L 5 3 L 5 5 L 3 5 Z M 6 3 L 8 3 L 8 5 L 6 5 Z M 9 3 L 11 3 L 11 5 L 9 5 Z M 3 7 L 13 7 L 13 13 L 3 13 Z M 3 7 "/>
</g>
</svg>
