<?xml version="1.0" encoding="UTF-8"?>
<svg xmlns="http://www.w3.org/2000/svg" xmlns:xlink="http://www.w3.org/1999/xlink" width="16px" height="16px" viewBox="0 0 16 16" version="1.1">
<g id="surface390578">
<path style=" stroke:none;fill-rule:nonzero;fill:rgb(18.039216%,20.392157%,21.176471%);fill-opacity:0.35;" d="M 2 1.007812 C 1.449219 1.007812 1 1.457031 1 2.007812 L 1 3.992188 L 3 3.992188 L 3 3.007812 L 12 3.007812 L 12 4 L 14 4 L 14 2.007812 C 14 1.457031 13.550781 1.007812 13 1.007812 Z M 2 1.007812 "/>
<path style=" stroke:none;fill-rule:nonzero;fill:rgb(18.039216%,20.392157%,21.176471%);fill-opacity:1;" d="M 4 4 C 3.449219 4 3 4.449219 3 5 L 3 12.007812 C 3 12.558594 3.449219 13.007812 4 13.007812 L 11 13.007812 C 11.550781 13.007812 12 12.558594 12 12.007812 L 12 5 C 12 4.449219 11.550781 4 11 4 Z M 4 6 L 11 6 L 11 9.992188 L 4 9.992188 Z M 4 10.992188 L 7 10.992188 L 7 12 L 4 12 Z M 8 10.992188 L 11 10.992188 L 11 12 L 8 12 Z M 8 10.992188 "/>
<path style=" stroke:none;fill-rule:nonzero;fill:rgb(18.039216%,20.392157%,21.176471%);fill-opacity:0.35;" d="M 2 16 C 1.449219 16 1 15.550781 1 15 L 1 13.015625 L 3 13.015625 L 3 14 L 12 14 L 12 13.007812 L 14 13.007812 L 14 15 C 14 15.550781 13.550781 16 13 16 Z M 2 16 "/>
</g>
</svg>
