<?xml version="1.0" encoding="UTF-8"?>
<svg xmlns="http://www.w3.org/2000/svg" xmlns:xlink="http://www.w3.org/1999/xlink" width="16px" height="16px" viewBox="0 0 16 16" version="1.1">
<g id="surface742589">
<path style=" stroke:none;fill-rule:nonzero;fill:rgb(18.039216%,20.392157%,21.176471%);fill-opacity:1;" d="M 8 1 C 7.78125 1 7.558594 1.011719 7.34375 1.03125 L 6.9375 3.125 C 6.605469 3.195312 6.28125 3.300781 5.96875 3.4375 L 4.4375 1.972656 C 4.050781 2.199219 3.710938 2.484375 3.375 2.78125 L 4.28125 4.6875 C 4.058594 4.9375 3.859375 5.210938 3.6875 5.5 L 1.59375 5.222656 C 1.417969 5.632812 1.28125 6.0625 1.1875 6.5 L 3.03125 7.5 C 3.011719 7.667969 3.003906 7.832031 3 8 C 3 8.171875 3.015625 8.332031 3.03125 8.5 L 1.1875 9.5 C 1.285156 9.945312 1.414062 10.371094 1.59375 10.78125 L 3.6875 10.5 C 3.859375 10.789062 4.058594 11.0625 4.28125 11.3125 L 3.375 13.21875 C 3.710938 13.519531 4.050781 13.800781 4.4375 14.03125 L 5.96875 12.5625 C 6.273438 12.699219 6.601562 12.800781 6.9375 12.875 L 7.34375 14.96875 C 7.78125 15.011719 8.21875 15.011719 8.65625 14.96875 L 9.0625 12.875 C 9.398438 12.800781 9.726562 12.699219 10.03125 12.5625 L 11.5625 14.03125 C 11.949219 13.800781 12.289062 13.519531 12.625 13.21875 L 11.71875 11.3125 C 11.941406 11.0625 12.140625 10.789062 12.3125 10.5 L 14.40625 10.78125 C 14.582031 10.367188 14.71875 9.941406 14.8125 9.5 L 12.96875 8.5 C 12.984375 8.332031 13 8.171875 13 8 C 13 7.828125 12.984375 7.667969 12.96875 7.5 L 14.8125 6.5 C 14.71875 6.0625 14.582031 5.632812 14.40625 5.21875 L 12.3125 5.5 C 12.140625 5.210938 11.945312 4.9375 11.71875 4.6875 L 12.625 2.78125 C 12.289062 2.484375 11.949219 2.199219 11.5625 1.96875 L 10.03125 3.4375 C 9.71875 3.300781 9.394531 3.195312 9.0625 3.125 L 8.65625 1.03125 C 8.4375 1.011719 8.21875 1 8 1 Z M 8 5 C 9.65625 5 11 6.34375 11 8 C 11 9.65625 9.65625 11 8 11 C 6.34375 11 5 9.65625 5 8 C 5 6.34375 6.34375 5 8 5 Z M 8 5 "/>
</g>
</svg>
