<?xml version="1.0" encoding="UTF-8"?>
<svg xmlns="http://www.w3.org/2000/svg" xmlns:xlink="http://www.w3.org/1999/xlink" width="16px" height="16px" viewBox="0 0 16 16" version="1.1">
<g id="surface604115">
<path style=" stroke:none;fill-rule:nonzero;fill:rgb(18.039216%,20.392157%,21.176471%);fill-opacity:1;" d="M 8.234375 1.003906 C 6.078125 0.933594 3.957031 1.863281 2.550781 3.605469 C 0.679688 5.921875 0.484375 9.1875 2.066406 11.710938 C 3.648438 14.238281 6.667969 15.488281 9.570312 14.820312 C 12.476562 14.152344 14.644531 11.703125 14.960938 8.738281 C 15.007812 8.378906 14.859375 8.019531 14.566406 7.804688 C 14.273438 7.585938 13.886719 7.546875 13.554688 7.695312 C 13.222656 7.847656 13 8.167969 12.972656 8.53125 C 12.746094 10.652344 11.203125 12.394531 9.121094 12.875 C 7.042969 13.351562 4.894531 12.460938 3.761719 10.652344 C 2.628906 8.84375 2.769531 6.523438 4.109375 4.859375 C 5.449219 3.195312 7.6875 2.570312 9.695312 3.296875 C 10.035156 3.425781 10.414062 3.363281 10.691406 3.128906 C 10.972656 2.898438 11.101562 2.535156 11.035156 2.179688 C 10.972656 1.824219 10.71875 1.53125 10.375 1.417969 C 9.675781 1.164062 8.953125 1.027344 8.234375 1.003906 Z M 8.234375 1.003906 "/>
<path style=" stroke:none;fill-rule:nonzero;fill:rgb(18.039216%,20.392157%,21.176471%);fill-opacity:1;" d="M 13.167969 2.542969 L 7.875 7.835938 L 5.457031 5.417969 L 4.042969 6.832031 L 7.875 10.664062 L 14.582031 3.957031 Z M 13.167969 2.542969 "/>
</g>
</svg>
