<?xml version="1.0" encoding="UTF-8"?>
<svg xmlns="http://www.w3.org/2000/svg" xmlns:xlink="http://www.w3.org/1999/xlink" width="16px" height="16px" viewBox="0 0 16 16" version="1.1">
<g id="surface390627">
<path style=" stroke:none;fill-rule:nonzero;fill:rgb(18.039216%,20.392157%,21.176471%);fill-opacity:1;" d="M 13.003906 1.023438 C 11.355469 1.023438 10 2.375 9.988281 4.019531 L 9.480469 4.019531 C 9.292969 4.019531 9.136719 4.113281 9.03125 4.292969 L 8.46875 5.421875 L 6.917969 2.320312 C 6.859375 2.199219 6.753906 2.109375 6.628906 2.070312 C 6.503906 2.027344 6.367188 2.035156 6.246094 2.09375 C 6 2.21875 5.898438 2.519531 6.023438 2.765625 L 8.023438 6.765625 C 8.226562 7.121094 8.703125 7.136719 8.917969 6.765625 L 9.789062 5.019531 L 10.167969 5.019531 C 10.582031 6.195312 11.695312 7.054688 13.003906 7.054688 C 14.65625 7.054688 16.019531 5.691406 16.019531 4.039062 C 16.019531 2.382812 14.65625 1.023438 13.003906 1.023438 Z M 0.664062 2.042969 C 0.539062 2 0.402344 2.007812 0.28125 2.066406 C 0.0351562 2.191406 -0.0664062 2.492188 0.0585938 2.738281 L 2.023438 6.765625 C 2.144531 7.011719 2.445312 7.109375 2.695312 6.988281 C 2.941406 6.863281 3.039062 6.566406 2.917969 6.320312 L 0.953125 2.292969 C 0.894531 2.171875 0.789062 2.082031 0.664062 2.042969 Z M 2.628906 2.066406 C 2.503906 2.027344 2.367188 2.035156 2.246094 2.09375 C 2 2.21875 1.898438 2.519531 2.023438 2.765625 L 4.023438 6.765625 C 4.148438 7.011719 4.445312 7.109375 4.695312 6.988281 C 4.941406 6.863281 5.039062 6.566406 4.917969 6.316406 L 2.917969 2.316406 C 2.859375 2.199219 2.753906 2.109375 2.628906 2.066406 Z M 4.628906 2.066406 C 4.503906 2.027344 4.367188 2.035156 4.246094 2.09375 C 4 2.21875 3.898438 2.519531 4.023438 2.765625 L 6.023438 6.765625 C 6.148438 7.011719 6.445312 7.109375 6.695312 6.988281 C 6.941406 6.863281 7.039062 6.566406 6.917969 6.316406 L 4.917969 2.316406 C 4.859375 2.199219 4.753906 2.109375 4.628906 2.066406 Z M 13.003906 3.03125 C 13.570312 3.03125 14.011719 3.46875 14.011719 4.035156 C 14.011719 4.605469 13.570312 5.042969 13.003906 5.042969 C 12.4375 5.042969 12 4.605469 12 4.035156 C 12 3.46875 12.4375 3.03125 13.003906 3.03125 Z M 13.003906 3.03125 "/>
<path style=" stroke:none;fill-rule:nonzero;fill:rgb(18.039216%,20.392157%,21.176471%);fill-opacity:1;" d="M 11.003906 9.023438 C 9.355469 9.023438 8 10.375 7.988281 12.019531 L 7.480469 12.019531 C 7.242188 12.019531 7.035156 12.1875 6.988281 12.425781 L 6.730469 13.273438 L 5 10 L 0 10 L 0 14 L 0.519531 14 C 0.824219 14 0.996094 13.804688 0.996094 13.480469 L 1 13 L 3 16 L 7 16 L 7.894531 13.019531 L 8.167969 13.019531 C 8.582031 14.195312 9.695312 15.050781 11.003906 15.050781 C 12.65625 15.050781 14.019531 13.691406 14.019531 12.039062 C 14.019531 10.382812 12.65625 9.023438 11.003906 9.023438 Z M 11.003906 11.03125 C 11.570312 11.03125 12.011719 11.46875 12.011719 12.039062 C 12.011719 12.605469 11.570312 13.042969 11.003906 13.042969 C 10.4375 13.042969 10 12.605469 10 12.039062 C 10 11.46875 10.4375 11.03125 11.003906 11.03125 Z M 11.003906 11.03125 "/>
</g>
</svg>
