<?xml version="1.0" encoding="UTF-8"?>
<svg xmlns="http://www.w3.org/2000/svg" xmlns:xlink="http://www.w3.org/1999/xlink" width="16px" height="16px" viewBox="0 0 16 16" version="1.1">
<g id="surface390594">
<path style=" stroke:none;fill-rule:nonzero;fill:rgb(18.039216%,20.392157%,21.176471%);fill-opacity:1;" d="M 3 1 C 1.785156 1 1 1.828125 1 3 L 1 13 C 1 14 2 15 3 15 L 13 15 C 14 15 15 14 15 13 L 15 3 C 15 1.761719 14.171875 1 13 1 Z M 3 4 L 13 4 L 13 13 L 3 13 Z M 3 4 "/>
<path style=" stroke:none;fill-rule:nonzero;fill:rgb(18.039216%,20.392157%,21.176471%);fill-opacity:1;" d="M 11 5 C 11.550781 5 12 5.449219 12 6 L 12 8 C 12 8.550781 11.550781 9 11 9 C 10.449219 9 10 8.550781 10 8 L 10 6 C 10 5.449219 10.449219 5 11 5 Z M 11 5 "/>
<path style=" stroke:none;fill-rule:nonzero;fill:rgb(18.039216%,20.392157%,21.176471%);fill-opacity:0.35;" d="M 10.027344 11.992188 C 10.027344 10.917969 9.457031 9.929688 8.527344 9.394531 C 7.601562 8.859375 6.457031 8.859375 5.527344 9.394531 C 4.601562 9.929688 4.027344 10.917969 4.027344 11.992188 "/>
</g>
</svg>
