<?xml version="1.0" encoding="UTF-8"?>
<svg xmlns="http://www.w3.org/2000/svg" xmlns:xlink="http://www.w3.org/1999/xlink" width="16px" height="16px" viewBox="0 0 16 16" version="1.1">
<g id="surface742732">
<path style=" stroke:none;fill-rule:nonzero;fill:rgb(18.039216%,20.392157%,21.176471%);fill-opacity:1;" d="M 7.90625 1 C 4.078125 1.050781 1 4.171875 1 8 C 1 11.867188 4.132812 15 8 15 C 11.867188 15 15 11.867188 15 8 C 15 4.132812 11.867188 1 8 1 C 7.96875 1 7.9375 1 7.90625 1 Z M 7.5 4 L 8.5 4 C 8.777344 4 9 4.222656 9 4.5 L 9 5.5 C 9 5.777344 8.777344 6 8.5 6 L 7.5 6 C 7.222656 6 7 5.777344 7 5.5 L 7 4.5 C 7 4.222656 7.222656 4 7.5 4 Z M 7 7 L 9 7 L 9 12 L 7 12 Z M 7 7 "/>
</g>
</svg>
