<?xml version="1.0" encoding="UTF-8" standalone="no"?>
<svg
   xmlns:dc="http://purl.org/dc/elements/1.1/"
   xmlns:cc="http://creativecommons.org/ns#"
   xmlns:rdf="http://www.w3.org/1999/02/22-rdf-syntax-ns#"
   xmlns:svg="http://www.w3.org/2000/svg"
   xmlns="http://www.w3.org/2000/svg"
   xmlns:sodipodi="http://sodipodi.sourceforge.net/DTD/sodipodi-0.dtd"
   xmlns:inkscape="http://www.inkscape.org/namespaces/inkscape"
   width="24"
   height="24"
   viewBox="0 0 6.3499999 6.3500002"
   version="1.1"
   id="svg59656"
   sodipodi:docname="spring-graph-symbolic.svg"
   inkscape:version="1.0.1 (3bc2e813f5, 2020-09-07)">
  <sodipodi:namedview
     pagecolor="#ffffff"
     bordercolor="#666666"
     borderopacity="1"
     objecttolerance="10"
     gridtolerance="10"
     guidetolerance="10"
     inkscape:pageopacity="0"
     inkscape:pageshadow="2"
     inkscape:window-width="1920"
     inkscape:window-height="1016"
     id="namedview842"
     showgrid="false"
     inkscape:zoom="13.366944"
     inkscape:cx="22.135598"
     inkscape:cy="17.974655"
     inkscape:window-x="0"
     inkscape:window-y="0"
     inkscape:window-maximized="1"
     inkscape:current-layer="svg59656" />
  <defs
     id="defs59650" />
  <metadata
     id="metadata59653">
    <rdf:RDF>
      <cc:Work
         rdf:about="">
        <dc:format>image/svg+xml</dc:format>
        <dc:type
           rdf:resource="http://purl.org/dc/dcmitype/StillImage" />
        <dc:title />
      </cc:Work>
    </rdf:RDF>
  </metadata>
  <path
     style="color:#000000;font-style:normal;font-variant:normal;font-weight:normal;font-stretch:normal;font-size:medium;line-height:normal;font-family:sans-serif;font-variant-ligatures:normal;font-variant-position:normal;font-variant-caps:normal;font-variant-numeric:normal;font-variant-alternates:normal;font-variant-east-asian:normal;font-feature-settings:normal;font-variation-settings:normal;text-indent:0;text-align:start;text-decoration:none;text-decoration-line:none;text-decoration-style:solid;text-decoration-color:#000000;letter-spacing:normal;word-spacing:normal;text-transform:none;writing-mode:lr-tb;direction:ltr;text-orientation:mixed;dominant-baseline:auto;baseline-shift:baseline;text-anchor:start;white-space:normal;shape-padding:0;shape-margin:0;inline-size:0;clip-rule:nonzero;display:inline;overflow:visible;visibility:visible;isolation:auto;mix-blend-mode:normal;color-interpolation:sRGB;color-interpolation-filters:linearRGB;solid-color:#000000;solid-opacity:1;vector-effect:none;fill:#241f31;fill-opacity:1;fill-rule:nonzero;stroke:none;stroke-width:0.529167;stroke-linecap:butt;stroke-linejoin:miter;stroke-miterlimit:4;stroke-dasharray:none;stroke-dashoffset:0;stroke-opacity:1;color-rendering:auto;image-rendering:auto;shape-rendering:auto;text-rendering:auto;enable-background:accumulate;stop-color:#000000;stop-opacity:1;opacity:1"
     d="M 3.1757812 0.52929688 C 2.8907242 0.52929688 2.6351672 0.62281489 2.4394531 0.78125 C 2.243739 0.93968511 2.1061129 1.1533792 2 1.3886719 C 1.7877743 1.8592573 1.6910188 2.4338546 1.5917969 2.9960938 C 1.4925749 3.5583329 1.3907762 4.1076956 1.2226562 4.4804688 C 1.1385963 4.6668553 1.039789 4.8050324 0.93164062 4.8925781 C 0.82349227 4.9801239 0.70726879 5.0273437 0.52929688 5.0273438 L 0 5.0273438 L 0 5.5566406 L 0.52929688 5.5566406 C 0.81435904 5.5566406 1.0699058 5.4631216 1.265625 5.3046875 C 1.4613442 5.1462534 1.5989614 4.9325588 1.7050781 4.6972656 C 1.9173116 4.2266793 2.0140591 3.6501307 2.1132812 3.0878906 C 2.2125034 2.5256505 2.3143074 1.9782427 2.4824219 1.6054688 C 2.5664791 1.4190818 2.6633408 1.2809041 2.7714844 1.1933594 C 2.8796279 1.1058147 2.9978175 1.0585937 3.1757812 1.0585938 C 3.353745 1.0585938 3.4699818 1.1058148 3.578125 1.1933594 C 3.6862682 1.2809039 3.7850845 1.4190821 3.8691406 1.6054688 C 4.037253 1.978242 4.1390676 2.5256518 4.2382812 3.0878906 C 4.3374949 3.6501295 4.4323192 4.2266808 4.6445312 4.6972656 C 4.7506373 4.932558 4.8882781 5.1462507 5.0839844 5.3046875 C 5.2796907 5.4631243 5.535263 5.5566406 5.8203125 5.5566406 L 6.3496094 5.5566406 L 6.3496094 5.0273438 L 5.8203125 5.0273438 C 5.642361 5.0273438 5.5261047 4.9801211 5.4179688 4.8925781 C 5.3098328 4.8050351 5.2110052 4.6668561 5.1269531 4.4804688 C 4.958849 4.1076941 4.8570264 3.5583341 4.7578125 2.9960938 C 4.6585986 2.4338534 4.5618331 1.859258 4.3496094 1.3886719 C 4.2434975 1.1533788 4.1058702 0.93968528 3.9101562 0.78125 C 3.7144423 0.62281472 3.4608383 0.52929688 3.1757812 0.52929688 z "
     id="path858" />
</svg>
