<?xml version="1.0" encoding="UTF-8" standalone="no"?>
<svg
   xmlns:dc="http://purl.org/dc/elements/1.1/"
   xmlns:cc="http://creativecommons.org/ns#"
   xmlns:rdf="http://www.w3.org/1999/02/22-rdf-syntax-ns#"
   xmlns:svg="http://www.w3.org/2000/svg"
   xmlns="http://www.w3.org/2000/svg"
   id="svg4559"
   version="1.1"
   viewBox="0 0 33.866666 33.866668"
   height="128"
   width="128">
  <defs
     id="defs4553" />
  <metadata
     id="metadata4556">
    <rdf:RDF>
      <cc:Work
         rdf:about="">
        <dc:format>image/svg+xml</dc:format>
        <dc:type
           rdf:resource="http://purl.org/dc/dcmitype/StillImage" />
        <dc:title></dc:title>
      </cc:Work>
    </rdf:RDF>
  </metadata>
  <g
     transform="translate(0,-263.13332)"
     id="layer1">
    <path
       id="path4128-0-9"
       d="m 10.288588,265.72939 c -0.4931085,-0.002 -7.1998855,2.72659 -7.6093575,3.09667 -0.487371,0.44062 0.06213,3.52138 1.216755,6.81155 2.614446,7.45452 9.3481765,14.23689 16.9319175,17.05436 2.196944,0.81619 6.459315,1.8421 7.054599,1.69835 0.175008,-0.0424 1.02999,-1.82384 1.900549,-3.96038 v 0 c 0.870556,-2.13654 1.582259,-3.92826 1.582259,-3.9822 0,-0.0537 -1.95503,-1.0677 -4.344857,-2.25294 l -4.344763,-2.15475 -2.086073,2.04565 -2.084158,2.04383 -1.311285,-0.90008 c -1.477598,-1.01345 -4.906881,-4.46154 -5.825231,-5.85875 l -0.603784,-0.92009 2.060548,-2.0602 2.060551,-2.05838 -2.176967,-4.30041 c -1.197547,-2.36522 -2.287368,-4.30148 -2.422523,-4.30223 z"
       style="fill:#bebebe;fill-opacity:1;stroke-width:0.26458332" />
  </g>
</svg>
